<svg width="86" height="81" viewBox="0 0 86 81" fill="none" xmlns="http://www.w3.org/2000/svg">
<path d="M54.5535 0H34.8343C34.2263 0 33.6182 0 32.9232 0.086631C20.4141 0.779679 9.72929 9.61604 5.8202 21.5711L0 39.4171C5.21212 42.8824 11.1192 45.0481 17.2869 45.7412L27.4505 46.8674C29.1879 47.0406 30.6646 47.9936 31.6202 49.3797L34.2263 53.2781C35.2687 54.9241 37.0929 55.877 39.0909 55.877H42.305L49.8626 73.9829C50.6444 73.2898 51.6869 72.7701 52.903 72.7701H53.2505L46.2141 55.877H48.1253L48.4727 56.0503L50.7313 52.4118C52.1212 50.0727 54.6404 48.6866 57.4202 48.6866H60.6343C63.3273 48.6866 65.5859 50.5059 66.2808 53.0182L67.5838 58.216L55.0747 73.03C56.2909 73.3765 57.2465 74.2428 57.8545 75.2824L69.1475 62.0278C70.3636 63.2406 72.1879 63.5872 73.7515 62.7209L85.0444 54.3176C85.0444 54.3176 86 36.9914 86 33.1797V31.4471C86 14.1209 71.8404 0 54.5535 0ZM51.6 9.70267C51.6 11.1754 50.3838 12.3882 48.9071 12.3882H42.305C40.8283 12.3882 39.6121 11.1754 39.6121 9.70267V9.09626C39.6121 7.62353 40.8283 6.4107 42.305 6.4107H48.9071C50.3838 6.4107 51.6 7.62353 51.6 9.09626V9.70267Z" fill="black"/>
<path d="M3.64848 -2.64377e-06H2.69293C1.21616 -2.64377e-06 -6.62755e-07 1.21284 -6.62755e-07 2.68556V3.6385C-6.62755e-07 5.11123 1.21616 6.32406 2.69293 6.32406H3.64848C5.12525 6.32406 6.34141 5.11123 6.34141 3.6385V2.68556C6.34141 1.21284 5.12525 -2.64377e-06 3.64848 -2.64377e-06Z" transform="translate(50.21 74.6759)" fill="black"/>
</svg>
