<svg width="69" height="80" viewBox="0 0 69 80" fill="none" xmlns="http://www.w3.org/2000/svg">
<path d="M40 3.9C40 1.7 38.2 0 36.1 0H3.9C1.7 0 0 1.8 0 3.9V76C0 78.2 1.8 79.9 3.9 79.9H36C38.2 79.9 39.9 78.1 39.9 76V3.9H40ZM20 73.5C14.7 73.5 10.4 69.2 10.4 63.9C10.4 58.6 14.7 54.3 20 54.3C25.3 54.3 29.6 58.6 29.6 63.9C29.6 69.2 25.3 73.5 20 73.5ZM20 49.5C14.7 49.5 10.4 45.2 10.4 39.9C10.4 34.6 14.7 30.3 20 30.3C25.3 30.3 29.6 34.6 29.6 39.9C29.6 45.2 25.3 49.5 20 49.5ZM20 25.5C14.7 25.5 10.4 21.2 10.4 15.9C10.4 10.6 14.7 6.3 20 6.3C25.3 6.3 29.6 10.6 29.6 15.9C29.6 21.2 25.3 25.5 20 25.5Z" transform="translate(14.1001)" fill="black"/>
<path d="M-3.8147e-07 0.1C-3.8147e-07 10.6 2.1 19.1 12.5 19.1V-3.8147e-07L-3.8147e-07 0.1C-3.8147e-07 0 -3.8147e-07 0 -3.8147e-07 0.1Z" transform="translate(0 6.4)" fill="black"/>
<path d="M-3.8147e-07 0.1C-3.8147e-07 10.6 2.1 19.1 12.5 19.1V1.52588e-06L-3.8147e-07 0.1C-3.8147e-07 0 -3.8147e-07 0 -3.8147e-07 0.1Z" transform="translate(0 30.4)" fill="black"/>
<path d="M-3.8147e-07 0.1C-3.8147e-07 10.6 2.1 19.1 12.5 19.1V1.52588e-06L-3.8147e-07 0.1C-3.8147e-07 0 -3.8147e-07 0 -3.8147e-07 0.1Z" transform="translate(0 54.4)" fill="black"/>
<path d="M12.6 0.1C12.6 0 12.6 0 12.6 0.1L0 -3.8147e-07V19.1C10.6 19.1 12.6 10.6 12.6 0.1Z" transform="translate(55.6001 6.4)" fill="black"/>
<path d="M-1.52588e-06 19.1C10.5 19 12.6 10.5 12.6 0.1V1.52588e-06H-1.52588e-06V19.1Z" transform="translate(55.7002 30.4)" fill="black"/>
<path d="M-1.52588e-06 19.1C10.5 19 12.6 10.5 12.6 0.1V1.52588e-06H-1.52588e-06V19.1Z" transform="translate(55.7002 54.4)" fill="black"/>
</svg>
