<svg width="68" height="96" viewBox="0 0 68 96" fill="none" xmlns="http://www.w3.org/2000/svg">
<path d="M67.2119 0H0V3.2H67.2119V0Z" transform="translate(0 80)" fill="black"/>
<path d="M4.80085 9.6C7.45229 9.6 9.60171 7.45097 9.60171 4.8C9.60171 2.14903 7.45229 0 4.80085 0C2.14942 0 0 2.14903 0 4.8C0 7.45097 2.14942 9.6 4.80085 9.6Z" transform="translate(6.40137 86.4)" fill="black"/>
<path d="M4.80085 9.6C7.45229 9.6 9.60171 7.45097 9.60171 4.8C9.60171 2.14903 7.45229 0 4.80085 0C2.14942 0 0 2.14903 0 4.8C0 7.45097 2.14942 9.6 4.80085 9.6Z" transform="translate(51.209 86.4)" fill="black"/>
<path d="M0.927803 2.37263H1.01215L5.39813 1.86653C5.90421 1.78218 6.24159 1.36042 6.24159 0.854313C6.15724 0.348206 5.73551 -0.0735494 5.22944 0.0108017L0.843459 0.516909C0.337384 0.60126 1.28701e-06 1.02302 1.28701e-06 1.52912C1.28701e-06 2.03523 0.421729 2.37263 0.927803 2.37263Z" transform="translate(46.3184 1.63576)" fill="black"/>
<path d="M4.48693 0.116261L0.522687 2.05634C0.100958 2.30939 -0.152079 2.8155 0.100958 3.3216C0.269649 3.65901 0.607033 3.82771 0.944416 3.82771C1.11311 3.82771 1.19745 3.82771 1.36614 3.74336L5.33039 1.80328C5.75212 1.55023 6.00516 1.04412 5.75212 0.538016C5.49908 0.0319095 4.90866 -0.136793 4.48693 0.116261Z" transform="translate(47.4829 4.14519)" fill="black"/>
<path d="M52.8584 11.0095C52.3524 10.4191 51.6776 9.99732 51.0028 9.82862C51.0028 9.74427 51.0028 9.65992 51.0028 9.57557L48.3881 0.718694C48.2194 0.212587 47.7133 -0.124818 47.1229 0.0438845L46.9542 0.128236C46.4482 0.296938 46.1108 0.803045 46.2795 1.3935L48.8098 10.0817C48.5568 10.166 48.3038 10.3347 48.1351 10.5034C48.0507 10.5878 42.1465 15.2271 39.1101 17.0828C37.2545 18.1794 33.2902 19.3603 29.7477 19.3603H20.6384C16.4211 19.3603 13.975 23.3248 12.2881 26.1927C12.0351 26.6145 11.6977 27.1206 11.4447 27.6267C10.4325 26.5301 8.91429 24.8431 7.73345 23.1561C7.05868 22.2282 6.04654 21.7221 5.03439 21.7221L4.52831 18.3481C4.44397 17.842 3.93789 17.5046 3.43182 17.5889C2.92574 17.6733 2.58836 18.1794 2.67271 18.6855L3.01009 20.963L1.66056 18.9385C1.40752 18.5168 0.817099 18.4324 0.39537 18.6855C-0.0263587 18.9385 -0.110704 19.529 0.142333 19.9508L2.33532 23.1561C1.49187 24.2527 1.49187 25.8553 2.33532 27.0363C7.56476 34.4592 10.2638 35.134 11.6134 35.134C11.782 35.134 11.9507 35.134 12.0351 35.134C14.6498 34.9653 16.168 32.9408 17.5176 30.6634L17.6863 45.1718L15.7463 76.0443C15.5776 78.2374 17.2645 80.0931 19.4575 80.1775C19.5419 80.1775 19.6262 80.1775 19.7105 80.1775C21.7348 80.1775 23.5061 78.5748 23.5905 76.466L25.3617 48.6301C25.4461 48.7145 25.5304 48.7989 25.6148 48.8832C26.8799 51.4137 29.2416 56.3061 30.0007 58.4992C30.5068 60.1863 30.6755 68.9588 30.4225 76.1286C30.3381 78.3218 32.025 80.0931 34.218 80.1775C36.411 80.2618 38.1823 78.5748 38.2666 76.3817C38.4353 71.405 38.6883 59.4271 37.4232 55.8C36.411 52.9321 33.6276 47.2805 32.6154 45.2561L33.0372 25.771C37.0014 25.2649 40.6283 23.9153 42.6526 22.7343C46.0264 20.7099 52.015 15.9019 52.268 15.7332C53.7019 14.6366 53.9549 12.4435 52.8584 11.0095Z" transform="translate(7.46143)" fill="black"/>
<path d="M7.84416 15.6893C12.1764 15.6893 15.6883 12.1771 15.6883 7.84466C15.6883 3.51217 12.1764 0 7.84416 0C3.51195 0 0 3.51217 0 7.84466C0 12.1771 3.51195 15.6893 7.84416 15.6893Z" transform="translate(24.8105 1.30915)" fill="black"/>
</svg>
