<svg width="72" height="96" viewBox="0 0 72 96" fill="none" xmlns="http://www.w3.org/2000/svg">
<path d="M8.00142 16C12.4205 16 16.0028 12.4183 16.0028 8C16.0028 3.58172 12.4205 0 8.00142 0C3.58236 0 0 3.58172 0 8C0 12.4183 3.58236 16 8.00142 16Z" transform="translate(28.8052)" fill="black"/>
<path d="M46.6707 6.4L68.3385 18.7776L71.5135 13.2224L48.3734 0H16.9406L1.36743e-06 27.1072L5.42816 30.4928L20.4932 6.4H21.9175V28.8H12.3158V57.6H21.9175V38.4H44.3215V57.6H53.9232V28.8H44.3215V6.4H46.6707Z" transform="translate(0.48584 19.2)" fill="black"/>
<path d="M67.2119 0H0V3.2H67.2119V0Z" transform="translate(0 80)" fill="black"/>
<path d="M4.80085 9.6C7.45229 9.6 9.60171 7.45097 9.60171 4.8C9.60171 2.14903 7.45229 0 4.80085 0C2.14942 0 0 2.14903 0 4.8C0 7.45097 2.14942 9.6 4.80085 9.6Z" transform="translate(6.40137 86.4)" fill="black"/>
<path d="M4.80085 9.6C7.45229 9.6 9.60171 7.45097 9.60171 4.8C9.60171 2.14903 7.45229 0 4.80085 0C2.14942 0 0 2.14903 0 4.8C0 7.45097 2.14942 9.6 4.80085 9.6Z" transform="translate(51.209 86.4)" fill="black"/>
</svg>
