<svg width="92" height="86" viewBox="0 0 92 86" fill="none" xmlns="http://www.w3.org/2000/svg">
<path d="M39.0268 -7.38281e-06C34.609 -7.38281e-06 31.0277 3.58167 31.0277 7.99987C31.0277 12.4181 34.609 15.9997 39.0268 15.9997C43.4446 15.9997 47.0259 12.4181 47.0259 7.99987C47.0259 3.58167 43.4446 -7.38281e-06 39.0268 -7.38281e-06ZM71.617 13.031L52.7128 13.9998C51.7188 13.9998 49.4014 15.3132 47.7446 15.9686C45.7565 17.9344 41.7903 19.9059 38.8081 19.9059C35.8259 19.9059 32.8596 18.9344 30.8715 16.9686H15.9356L1.03099 20.9059C-0.95713 23.8547 0.0485997 26.7808 3.03077 26.7808L14.967 23.8435L27.8718 24.8122L22.9036 41.5306C21.9095 45.4625 23.8956 49.4112 27.8718 53.3431L19.9352 66.0929C19.9352 70.0246 23.8897 71.0104 26.8719 68.0616L36.8083 53.3431L42.7764 54.3117L32.84 70.0303C32.84 72.9793 36.8258 73.9649 39.808 71.999L53.7127 52.3431C54.7068 50.3772 53.7264 47.4198 50.7443 46.4369L41.8078 44.4682L46.776 25.8121C49.7581 24.8293 52.7303 22.5442 55.7125 20.9059L72.6169 18.9372C74.605 16.9714 74.5992 14.014 71.617 13.031ZM1.96311 67.7754C1.87331 68.718 2.54969 69.6752 3.46822 69.9053L10.5924 71.999C10.251 72.5881 10.03 73.2691 10.03 73.999C10.03 76.208 11.8207 77.9989 14.0296 77.9989C16.1717 77.9989 17.8942 76.3031 17.9979 74.1865L36.7458 79.7178C36.2995 80.363 36.0272 81.1548 36.0272 81.9989C36.0272 84.2079 37.8178 85.9988 40.0267 85.9988C42.5183 86.0528 43.9549 84.2958 44.0263 81.8739C48.5538 83.404 52.9512 81.8039 55.4625 79.4051C56.2069 78.6606 56.2069 77.3059 55.4625 76.5614C54.7181 75.8169 53.3635 75.8169 52.6191 76.5614C51.3263 77.8543 47.7007 78.8084 45.8073 78.2489L4.62434 66.0616C3.41379 65.7229 2.09133 66.5122 1.96311 67.7754Z" transform="translate(18)" fill="white"/>
<line x1="1.5" y1="-1.5" x2="22.8311" y2="-1.5" transform="translate(25 34) rotate(-170.538)" stroke="white" stroke-width="3" stroke-linecap="round" stroke-linejoin="round"/>
<line x1="1.5" y1="-1.5" x2="22.8311" y2="-1.5" transform="translate(25 43) rotate(-170.538)" stroke="white" stroke-width="3" stroke-linecap="round" stroke-linejoin="round"/>
<line x1="1.5" y1="-1.5" x2="22.8311" y2="-1.5" transform="translate(25 52) rotate(-170.538)" stroke="white" stroke-width="3" stroke-linecap="round" stroke-linejoin="round"/>
</svg>
