<svg width="146" height="57" viewBox="0 0 146 57" fill="none" xmlns="http://www.w3.org/2000/svg">
<path d="M119.873 57L64.4223 49.4299L51.7052 33.2959L25.286 34.885L13.5844 16.8991L5.44617e-07 4.08267L19.3022 1.20011e-06L33.3239 18.1468L63.6746 15.5048L67.1474 33.7463L93.5309 37.1354L94.1341 24.2529L124.149 28.584L116.431 16.7185L121.663 14.2321L132.248 18.2451L132.351 18.3899L146 37.3696L110.922 40.4012L119.873 57ZM131.504 19.2193L121.719 15.5084L118.15 17.2048L126.551 30.1177L126.726 37.8576L131.336 37.4572L131.504 19.2193ZM125.566 29.9747L96.2239 25.7419L95.0889 51.9002L108.696 53.9022L109.039 39.3859L125.723 37.9416L125.566 29.9747ZM62.7234 16.7686L33.3881 19.3212V33.219L52.2442 32.0875L62.7394 45.3991L62.7234 16.7686ZM19.3897 2.0324L18.8258 1.30131L2.43598 4.76728L14.4803 16.1519L19.3968 23.6934L19.3897 2.0324Z" fill="black"/>
</svg>
